PathFileType	4	(X/Y/Z)	Patient4_TMGait_0pt4_02_left_34.trc.trc
DataRate	CameraRate	NumFrames	NumMarkers	Units	OrigDataRate	OrigDataStartFrame	OrigNumFrames
75.268817204301	75.268817204301	6	33	mm	75.268817204301	71	       141
Frame#	Time	Sacral			L.Shoulder			Chest			R.Shoulder			Neck			R.ASIS			L.ASIS			R.Thigh.Superior			R.Thigh.Lateral			R.Thigh.Inferior			R.Patella			L.Thigh.Superior			L.Thigh.Lateral			L.Thigh.Inferior			L.Patella			L.Shank.Superior			L.Shank.Lateral			L.Shank.Inferior			R.Shank.Superior			R.Shank.Lateral			R.Shank.Inferior			R.Heel			R.Midfoot.Superior			R.Midfoot.Lateral			R.Toe			L.Heel			L.Midfoot.Lateral			L.Midfoot.Superior			L.Toe			L.Elbow			L.Wrist			R.Elbow			R.Wrist			
		X1	Y1	Z1	X2	Y2	Z2	X3	Y3	Z3	X4	Y4	Z4	X5	Y5	Z5	X6	Y6	Z6	X7	Y7	Z7	X8	Y8	Z8	X9	Y9	Z9	X10	Y10	Z10	X11	Y11	Z11	X12	Y12	Z12	X13	Y13	Z13	X14	Y14	Z14	X15	Y15	Z15	X16	Y16	Z16	X17	Y17	Z17	X18	Y18	Z18	X19	Y19	Z19	X20	Y20	Z20	X21	Y21	Z21	X22	Y22	Z22	X23	Y23	Z23	X24	Y24	Z24	X25	Y25	Z25	X26	Y26	Z26	X27	Y27	Z27	X28	Y28	Z28	X29	Y29	Z29	X30	Y30	Z30	X31	Y31	Z31	X32	Y32	Z32	X33	Y33	Z33	

71	46.400000000000	834.377656047215	1000.334896919575	421.243844070190	1013.870760893858	1436.560902443789	246.558135335357	1102.536899820125	1374.072575505606	417.653681950348	999.233867865620	1442.362780900280	582.755876117959	977.065133681417	1496.979984599527	401.917213644980	1058.599604832984	945.001667182081	551.677954831638	1057.992329663796	968.216520271990	276.681496347518	1121.286371551442	756.044305392642	528.574783983336	1066.650238365548	640.679035623398	604.485636292056	1151.004314667347	593.860699299841	524.915669953114	1177.468524132230	512.066230749719	542.028125916629	1069.610785065873	740.000162167502	302.535059241268	958.016015424610	639.787120521121	237.276910434776	1023.085396771317	550.244959895719	300.548646219359	1010.716960218419	485.036785030941	309.051234241688	981.914434234487	416.488924875018	300.953239579196	885.475501324610	305.696041280450	252.584714871751	935.485458297505	193.218778857574	324.657086902870	1159.121887706853	426.562591788171	555.723197761593	1102.941199532923	317.423709440540	623.910170287483	1168.173125657929	227.355188231486	573.579238232034	1070.355773187844	43.439563762702	554.539052258960	1236.662354534324	112.287146973049	586.752298137731	1156.582081940037	41.732908757557	625.774517846059	1360.365154024656	72.568303548057	609.956793364927	805.575089633271	39.123485157231	373.576047367035	877.284741705198	34.663552083328	290.893293541731	961.603958769540	96.432404224413	315.589501826430	1089.445796651282	43.757776044275	285.688576102819	1094.345680371227	1115.044456311410	86.909398154822	1344.733737264673	1040.308713580544	72.711573975488	865.742525283101	1124.968010150431	692.679913914258	849.894808669949	863.891082325997	701.566643249810	
72	46.413285714286	835.183384230861	998.856849713513	423.711166520224	1013.459280667143	1435.489006055060	249.288683381784	1102.107846517459	1373.350253492861	420.561258092821	998.298389601404	1441.303121675875	585.509355225380	976.417481420198	1495.910712053154	404.600866070069	1059.107383564914	943.780989227742	554.394719315213	1059.036888368774	967.586825566648	279.373633448340	1121.893378558578	754.329403186462	531.236420464406	1065.559733609783	638.427095756055	605.416981337693	1150.592856071583	592.250245613679	526.347798573296	1176.008722207383	510.124617017822	542.450771207129	1068.937601326817	738.843718027195	304.718237921647	956.510307225721	639.717653774135	238.922381831038	1020.476501149661	549.495680178437	302.229134410996	1007.524084522128	484.285537941852	310.540142557077	978.368792340034	416.033577697652	302.147355757591	881.348987373136	305.915220472081	253.343602721702	930.687458602712	192.964219311417	325.135267000803	1157.042549523341	424.082682981770	555.762179746348	1099.355347174020	315.238436163849	622.986115938380	1163.898132111497	224.869701714552	572.530114287395	1064.418300262936	42.725651837711	552.552711543451	1231.192211718287	109.337505399065	585.149310631819	1150.287359022230	40.257256492538	624.117478639391	1354.411961216784	68.508176679070	608.681764521408	800.197903823304	39.017551898380	373.593631038589	871.892516353956	34.640456396717	290.880033319329	956.177204066680	96.468413897490	315.665640993280	1084.045335245110	43.838786387993	285.700312773661	1093.387554362635	1113.612702846751	89.919254459597	1343.818657787063	1039.353212719184	74.434421757369	866.218492826013	1122.943183187749	694.446240083356	851.223041046044	861.725030285167	702.007612989252	
73	46.426571428571	836.035398089884	997.365198027812	426.321704099989	1012.983073690364	1434.424121157877	252.242367751213	1101.696908073777	1372.642142085588	423.660291782534	997.356312394147	1440.159840843469	588.502756370607	975.752898916916	1494.820343163651	407.526273242648	1059.816451811416	942.584745129043	557.217483441576	1060.127471249943	966.939435336726	282.209045951677	1123.166613636221	752.943523443013	533.769292088617	1065.233564256161	636.394807204875	606.196463661224	1151.025621080000	591.023437913664	527.637788444060	1175.316694301451	508.318226107469	542.691933149116	1068.528521708618	737.676322308769	306.979323599424	955.341421490223	639.544894813754	240.713324335907	1018.313389913654	548.683143409534	304.030296879276	1004.806448341336	483.377827402355	312.168301707237	975.212344370360	415.407814792018	303.468734919122	877.472935495496	306.088545162708	254.231904211932	926.001875842941	192.581030890679	325.668486820599	1155.468161757636	421.622243327526	555.684361355616	1096.006545440707	313.331809950066	622.189671284036	1159.292304191178	222.369416264030	571.465035102725	1057.303231551692	42.325556178975	550.872415015999	1224.722714704436	106.412562904535	583.613394085830	1142.873401772046	39.062793963257	622.740798448070	1347.432963215266	64.278583059921	607.516560382851	794.812405862970	38.800344636672	373.614477041193	866.504785907491	34.548131875664	290.875181337489	950.743553841721	96.465584843425	315.771904491869	1078.676256128745	43.906125737880	285.710325198087	1092.056573140477	1112.040368756880	93.185726350610	1342.302153847004	1037.381863965483	76.336811674477	867.470711939829	1120.428220614482	696.503832102602	854.110609333342	859.047435248038	702.771638451330	
74	46.439857142857	836.913743560703	995.903965414164	429.065260535345	1012.475570511700	1433.405740481415	255.415607396460	1101.325394134070	1371.964708885554	426.943481475843	996.448143612337	1438.967525872759	591.729899302801	975.103291807359	1493.750047353887	410.690560892873	1060.709770422035	941.457212473002	560.138896784234	1061.219338616980	966.289957812763	285.176648019172	1125.002159116927	751.899630158292	536.131828997518	1065.653538731648	634.649518148633	606.891226434860	1152.192155287086	590.170951088865	528.791229175035	1175.302200540315	506.702192853825	542.801705776731	1068.410138399286	736.531431673365	309.293163134739	954.547637716681	639.251063017848	242.663603845606	1016.684222617904	547.805011665708	305.953587933575	1002.673904434219	482.285113724678	313.921634381922	972.516682626074	414.589620104992	304.918412124853	873.882075895830	306.222527763291	255.273386096129	921.448341962905	192.056729669066	326.254252269414	1154.445181325717	419.292998690469	555.556764767749	1093.169696676898	311.727144790321	621.643835040498	1154.740870703055	219.979143462608	570.462162238076	1049.671637846902	42.143382999741	549.576208470524	1217.803910763511	103.741254398662	582.225966101906	1135.015496421058	38.162134868130	621.702703462110	1340.045500284777	60.282593466999	606.521874307182	789.416633487929	38.468327389938	373.633643511254	861.126735896080	34.371660818770	290.882205908315	945.317473063425	96.410161146363	315.903629085772	1073.351675933710	43.941083290899	285.714320530094	1090.354140500070	1110.365804830454	96.709461190238	1340.170680714456	1034.405320431001	78.420536498003	869.436817973947	1117.516648334761	698.833097825609	858.491108923548	855.965175915738	703.897746461016	
75	46.453142857143	837.805478585573	994.514850379505	431.944971477228	1011.964435026137	1432.477318359820	258.797497603016	1101.010281474601	1371.337506589571	430.393467438247	995.619223910940	1437.767185817379	595.176909202325	974.495651211325	1492.743875259033	414.084590065303	1061.765888910351	940.443362328764	563.152508032113	1062.267645455313	965.658169086000	288.262196822222	1127.268249424220	751.197205231084	538.296861036720	1066.771165297754	633.241713967439	607.578065968286	1153.944356363930	589.659893386935	529.824177553706	1175.839707212235	505.312797800681	542.851058891273	1068.602507394020	735.445930296243	311.645457860016	954.169295901442	638.822694899320	244.790790924332	1015.687296569649	546.863238214459	307.999326196003	1001.251625786314	480.983139022355	315.776807344521	970.361789516699	413.568053982028	306.490502851791	870.618804433192	306.338447327304	256.487417533960	917.054366271762	191.395171515004	326.886738304670	1153.958021585298	417.182582195971	555.444913757356	1091.011888976497	310.431203398426	621.433624297813	1150.521766025317	217.802925795661	569.582898283922	1042.052562525510	42.104971349784	548.685536887944	1210.872718032844	101.503337479527	581.046661351517	1127.242837347390	37.544604966105	621.014691206525	1332.728816778432	56.811959259871	605.739920932633	784.010964178418	38.048425430429	373.644162422219	855.764390087621	34.111325460184	290.903422896385	939.920933019195	96.292756755135	316.050819934784	1068.081702532946	43.920792141217	285.706290207056	1088.284254653408	1108.634727049404	100.492273373845	1337.398089085072	1030.438206823434	80.689936499076	872.065563482807	1114.311356988514	701.410567748226	864.299275258742	852.601051863607	705.405892226416	
76	46.466428571429	838.701685005275	993.236342926722	434.976140179120	1011.466759563999	1431.681500456434	262.370219881197	1100.762585851714	1370.781680417544	433.982979742385	994.916584437162	1436.603115970384	598.822518578371	973.948766546477	1491.843822562501	417.693083690669	1062.960918333379	939.582452764472	566.251669818779	1063.231805046341	965.068126515562	291.448462655260	1129.812331475535	750.812116501900	540.259875129335	1068.492499254051	632.193077087490	608.334970262473	1156.095319005324	589.429913582791	530.764809412551	1176.764792105977	504.159250367883	542.919185644100	1069.119762682299	734.459805580119	314.033251321319	954.250094518343	638.252682204020	247.111814150195	1015.430272417571	545.865721802223	310.162525972571	1000.678250716990	479.456891686018	317.698262358079	968.837734981092	412.346949078152	308.169009064879	867.738236302763	306.475574581381	257.883667507156	912.858866082791	190.622892158287	327.555272232728	1153.917840380624	415.340041114016	555.404217363831	1089.563293834437	309.425342379351	621.595245610553	1146.774489998478	215.906151556499	568.866186958691	1034.798885377472	42.152221837480	548.173496314604	1204.217629414476	99.802745664538	580.107564429345	1119.899053511701	37.176215112028	620.648690037961	1325.790959528516	54.026603979472	605.185536417421	778.600757237770	37.611806748342	373.636802390484	850.424748820385	33.792373462109	290.938846579318	934.585159481120	96.112619707915	316.197443207501	1062.870350021439	43.819629579677	285.679256607768	1085.855063363704	1106.898092039652	104.534537268290	1333.947286505665	1025.501120811168	83.152325239167	875.317542192788	1110.918734398978	704.212910167715	871.475668962428	849.087509333382	707.297804687101	
